<svg width="122" height="124" viewBox="0 0 122 124" fill="none" xmlns="http://www.w3.org/2000/svg">
<path d="M15.209 92.4973H53.2309V100.205H15.209V92.4973ZM15.209 69.3729H53.2309V77.081H15.209V69.3729ZM98.8571 53.9566H22.8134C20.7966 53.9566 18.8624 53.1445 17.4363 51.699C16.0102 50.2534 15.209 48.2928 15.209 46.2485V23.1241C15.209 21.0798 16.0102 19.1192 17.4363 17.6737C18.8624 16.2281 20.7966 15.416 22.8134 15.416H98.8571C100.874 15.416 102.808 16.2281 104.234 17.6737C105.66 19.1192 106.461 21.0798 106.461 23.1241V46.2485C106.461 48.2928 105.66 50.2534 104.234 51.699C102.808 53.1445 100.874 53.9566 98.8571 53.9566ZM22.8134 23.1241V46.2485H98.8571V23.1241H22.8134ZM98.8571 107.914H76.044C74.0272 107.914 72.093 107.101 70.6669 105.656C69.2408 104.21 68.4396 102.25 68.4396 100.205V77.081C68.4396 75.0367 69.2408 73.0761 70.6669 71.6305C72.093 70.185 74.0272 69.3729 76.044 69.3729H98.8571C100.874 69.3729 102.808 70.185 104.234 71.6305C105.66 73.0761 106.461 75.0367 106.461 77.081V100.205C106.461 102.25 105.66 104.21 104.234 105.656C102.808 107.101 100.874 107.914 98.8571 107.914ZM76.044 77.081V100.205H98.8571V77.081H76.044Z" fill="white"/>
</svg>
