<svg width="128" height="128" viewBox="0 0 128 128" fill="none" xmlns="http://www.w3.org/2000/svg">
<path d="M60.9909 15.3999C61.5411 16.1618 61.8289 17.0819 61.8108 18.0216C61.7928 18.9613 61.47 19.8696 60.8909 20.6099C57.5609 24.8699 50.5009 33.3999 43.4809 38.5799C34.8209 44.9799 26.9309 47.8499 22.9109 49.0199C21.1309 49.5399 19.2309 48.8499 18.1609 47.3399C15.5209 43.6299 11.3209 35.6799 12.9709 24.4299C15.3009 8.4299 33.6309 0.709901 45.5109 4.5499C57.3909 8.3899 60.9909 15.3999 60.9909 15.3999Z" fill="#FFC107"/>
<path d="M24.5005 46.0299C23.3305 46.5199 22.2705 45.1499 23.0205 44.1399C25.2205 41.1999 29.4905 36.3799 37.2805 30.0999C45.7305 23.2899 51.7205 20.8799 54.9905 20.0299C56.1205 19.7399 56.9905 21.0099 56.3105 21.9599C54.1005 25.0599 49.4505 30.7199 41.8405 36.1499C34.4605 41.4199 28.2005 44.4699 24.5005 46.0299Z" fill="url(#paint0_radial_938_2206)"/>
<path d="M32.7309 8.74006C33.1909 10.7201 35.6909 11.4101 38.1109 11.0001C40.7309 10.5601 44.0309 10.1901 43.7209 7.53006C43.4009 4.78006 39.0209 4.89006 37.4009 4.98006C35.0309 5.12006 32.3209 6.99006 32.7309 8.74006Z" fill="#FFEE58"/>
<path d="M84.2497 3.71992C96.2097 0.499918 113.77 4.61992 117.29 25.3399C118.63 33.2099 115.5 40.1799 113.31 43.8999C112.23 45.7399 110.12 46.7199 108.03 46.2999C103.95 45.4799 96.3497 43.1899 86.1697 36.8299C80.5097 33.2999 72.8097 26.4199 68.4497 22.3699C66.4797 20.5399 66.2897 17.4699 68.0597 15.4399C71.5197 11.4699 77.6097 5.50992 84.2497 3.71992Z" fill="#FFC107"/>
<path d="M73.4194 22.5C72.7894 21.87 73.3894 20.81 74.2594 21.03C78.0794 21.99 85.1294 24.14 91.3894 28.05C97.8094 32.07 104.299 38.18 107.589 41.45C108.239 42.09 107.599 43.17 106.719 42.91C102.699 41.74 95.3094 39.14 87.9994 34.21C80.5694 29.2 75.8394 24.91 73.4194 22.5Z" fill="url(#paint1_radial_938_2206)"/>
<path d="M83.5906 11.8399C79.6406 13.0799 78.5306 10.2899 80.6406 8.16993C82.1606 6.63993 88.5706 3.90993 94.1306 5.06993C97.8006 5.83993 98.9506 11.1299 93.7806 11.0599C90.2606 11.0099 88.4306 10.3199 83.5906 11.8399Z" fill="#FFEE58"/>
<path d="M110.019 120.05C97.5694 112.22 89.2294 96.9702 87.7094 79.2502C86.3394 63.2402 90.2194 47.0302 93.3394 34.0102L99.7394 36.9202C96.7594 49.3802 94.4194 63.8402 95.6794 78.5602C96.9794 93.7902 103.939 106.77 114.279 113.27L110.019 120.05ZM60.5794 117.29L57.2794 110C61.1894 108.23 63.4494 103.1 62.1094 99.0302C61.4594 97.0402 60.0594 95.1402 58.5894 93.1302C57.3894 91.4902 56.1394 89.7902 55.1194 87.8402C52.4594 82.7402 51.8294 76.6402 53.4094 71.1102C54.2094 68.3202 55.4794 65.8502 56.7194 63.4602C58.1194 60.7602 59.4294 58.2202 59.7694 55.6602C60.0794 53.2902 59.5194 50.7802 58.2194 48.7702C57.0394 46.9602 55.2194 45.4002 53.2894 43.7602C51.8294 42.5102 50.3094 41.2202 48.9194 39.7002C45.6294 36.1002 44.3494 31.8102 44.3694 27.0202L49.9394 24.9102C49.9394 24.9102 50.9494 30.3502 52.3094 32.5202C53.7394 34.7902 55.8694 36.3302 57.8894 38.0502C60.1694 40.0002 63.1194 41.6302 64.9294 44.4302C67.2494 48.0102 68.2594 52.4902 67.6994 56.7302C67.1794 60.6702 65.4694 63.9702 63.8194 67.1602C62.7194 69.2902 61.6794 71.3002 61.0994 73.3302C60.0794 76.9102 60.4794 80.8602 62.2094 84.1602C62.9494 85.5802 63.9594 86.9602 65.0394 88.4302C66.8194 90.8602 68.6594 93.3602 69.7094 96.5602C72.3394 104.51 68.2394 113.83 60.5794 117.29Z" fill="#03A9F4"/>
<path d="M10.5093 123.31L5.7793 116.86C36.1093 94.6399 39.3393 62.0999 37.1993 45.5199L43.2393 43.6699C45.6093 61.9999 44.1493 98.6699 10.5093 123.31Z" fill="#F48FB1"/>
<path d="M94.9201 73.36L95.4501 73.77C95.3901 70.48 95.5501 67.17 95.8601 63.89C93.1801 61.66 90.6801 59.27 88.8801 56.47C88.8301 56.39 88.7901 56.31 88.7401 56.23C88.2001 59.83 87.7801 63.51 87.5801 67.22C89.9701 69.51 92.5301 71.51 94.9201 73.36Z" fill="#0076C6"/>
<path d="M114.93 95.3502L107.67 91.9802C109.52 88.0002 107.97 83.1902 105.91 80.0202C103.23 75.9002 99.0098 72.6202 94.9198 69.4502C90.5298 66.0502 85.5598 62.2002 82.1398 56.8702C75.8498 47.0802 76.9598 34.8902 84.0498 25.6602L89.8598 28.9102C84.7598 35.5602 84.3498 45.4902 88.8698 52.5402C91.5398 56.7102 95.7498 59.9602 99.8198 63.1202C104.22 66.5302 109.2 70.3902 112.62 75.6502C116.74 82.0002 117.63 89.5502 114.93 95.3502ZM8.98982 92.5901C7.48982 84.1101 13.6898 79.7202 17.0198 77.3602C17.4198 77.0802 17.9098 76.7302 18.2498 76.4602C18.2198 75.7502 17.7398 74.8602 16.8398 73.3502C15.3598 70.8602 13.3398 67.4402 14.8898 63.0902C16.2398 59.3102 20.1598 58.0602 22.7598 56.6002C24.9798 55.3502 26.5898 53.8302 27.3898 51.2902C28.3198 48.3302 27.6698 40.8902 27.6698 40.8902L32.5498 38.0402C32.5498 38.0402 34.0898 45.1502 34.0898 48.7702C34.0898 59.0302 28.3998 61.6502 25.9998 63.0002C24.3398 63.9302 22.7698 64.8102 22.4298 65.7702C22.1798 66.4702 22.5298 67.2602 23.7298 69.2802C25.1698 71.7002 27.1298 75.0302 25.8498 79.2802C25.2298 81.3502 23.4898 82.5902 21.6498 83.8902C18.3898 86.2002 16.2898 87.9601 16.8698 91.2001L8.98982 92.5901ZM75.0498 82.2602C71.4898 81.4102 69.0598 79.2902 66.8798 77.4902L71.9798 71.3202C71.9798 71.3202 73.7898 74.0102 77.7598 75.2502L75.0498 82.2602ZM68.6298 37.2402L62.7198 33.7702L66.9998 27.0002L72.9198 30.4702L68.6298 37.2402ZM83.9698 113.56L75.9998 108.61L82.1498 101.77L88.2998 107.61L83.9698 113.56Z" fill="#F44336"/>
<path d="M109.207 60.166L113.897 53.686L120.857 58.722L116.166 65.202L109.207 60.166Z" fill="#FB8C00"/>
<path d="M52.8901 57.0601L45.8301 52.1801L49.5001 47.3101L56.5501 52.1901L52.8901 57.0601Z" fill="#F44336"/>
<path d="M61.4297 65.59C61.4297 65.59 62.7897 65.54 64.4797 65.87C65.6997 63.47 66.8597 60.97 67.4597 58.16C65.3797 57.69 63.7097 57.92 63.7097 57.92L61.4297 65.59Z" fill="#0076C6"/>
<path d="M70.9196 66.5299C68.1296 64.1499 63.4696 64.3199 63.4696 64.3199L65.7396 56.6499C65.7396 56.6499 70.8996 55.9299 74.3796 59.5599L70.9196 66.5299ZM4.64062 98.3099L11.8976 97.8659L12.3846 105.852L5.12863 106.294L4.64062 98.3099ZM43.1696 96.9099L38.5596 90.3699C40.5996 88.9299 42.4696 87.2199 44.0896 85.3099L50.1896 90.4899C48.1266 92.9143 45.7683 95.0711 43.1696 96.9099Z" fill="#FB8C00"/>
<path d="M43.2299 115.39C40.8299 113.41 38.2899 111.57 35.6699 109.91L39.9499 103.15C42.8499 104.98 45.6599 107.02 48.3199 109.21L43.2299 115.39Z" fill="#F44336"/>
<path d="M87.8496 80.0902C88.1296 83.4002 88.5196 85.7802 89.2596 88.8802L94.5296 84.6502L89.3996 78.2402L87.8496 80.0902Z" fill="#0076C6"/>
<path d="M79.3691 85.1939L87.4291 78.7329L92.4321 84.9739L84.3721 91.4359L79.3691 85.1939Z" fill="#FFC107"/>
<path d="M76.6192 125.26C75.2192 122.69 73.6492 120.18 71.9492 117.8L78.4592 113.15C80.3559 115.803 82.0859 118.572 83.6392 121.44L76.6192 125.26Z" fill="#FB8C00"/>
<defs>
<radialGradient id="paint0_radial_938_2206" cx="0" cy="0" r="1" gradientUnits="userSpaceOnUse" gradientTransform="translate(39.6625 33.0659) scale(15.102 15.102)">
<stop offset="0.376" stop-color="#AF5700"/>
<stop offset="1" stop-color="#8F4700"/>
</radialGradient>
<radialGradient id="paint1_radial_938_2206" cx="0" cy="0" r="1" gradientUnits="userSpaceOnUse" gradientTransform="translate(90.5004 31.97) scale(21.224 21.224)">
<stop offset="0.376" stop-color="#AF5700"/>
<stop offset="1" stop-color="#8F4700"/>
</radialGradient>
</defs>
</svg>
