<svg width="79" height="79" viewBox="0 0 79 79" fill="none" xmlns="http://www.w3.org/2000/svg">
<path d="M7.78125 0.875H71.2188C75.445 0.875 78.875 4.23967 78.875 8.38542V70.6146C78.875 72.6065 78.0684 74.5168 76.6325 75.9252C75.1967 77.3337 73.2493 78.125 71.2188 78.125H7.78125C5.75069 78.125 3.80329 77.3337 2.36746 75.9252C0.931639 74.5168 0.125 72.6065 0.125 70.6146V8.38542C0.125 4.23967 3.555 0.875 7.78125 0.875ZM71.2188 7.3125H7.78125C7.49117 7.3125 7.21297 7.42554 7.00785 7.62675C6.80273 7.82796 6.6875 8.10086 6.6875 8.38542V70.6146C6.6875 71.2068 7.1775 71.6875 7.78125 71.6875H8.6125L51.5881 29.5305C52.2991 28.833 53.1431 28.2797 54.0721 27.9022C55.001 27.5247 55.9967 27.3304 57.0022 27.3304C58.0077 27.3304 59.0033 27.5247 59.9323 27.9022C60.8612 28.2797 61.7053 28.833 62.4163 29.5305L72.3125 39.2382V8.38542C72.3125 8.10086 72.1973 7.82796 71.9921 7.62675C71.787 7.42554 71.5088 7.3125 71.2188 7.3125ZM72.3125 48.3408L57.7744 34.0796C57.6728 33.9797 57.5521 33.9004 57.4192 33.8463C57.2863 33.7923 57.1439 33.7644 57 33.7644C56.8561 33.7644 56.7137 33.7923 56.5808 33.8463C56.4479 33.9004 56.3272 33.9797 56.2256 34.0796L17.8919 71.6875H71.2188C71.5088 71.6875 71.787 71.5745 71.9921 71.3732C72.1973 71.172 72.3125 70.8991 72.3125 70.6146V48.3408ZM24.1875 35.2083C21.2867 35.2083 18.5047 34.0779 16.4535 32.0658C14.4023 30.0537 13.25 27.3247 13.25 24.4792C13.25 21.6336 14.4023 18.9046 16.4535 16.8925C18.5047 14.8804 21.2867 13.75 24.1875 13.75C27.0883 13.75 29.8703 14.8804 31.9215 16.8925C33.9727 18.9046 35.125 21.6336 35.125 24.4792C35.125 27.3247 33.9727 30.0537 31.9215 32.0658C29.8703 34.0779 27.0883 35.2083 24.1875 35.2083ZM24.1875 28.7708C25.3478 28.7708 26.4606 28.3187 27.2811 27.5138C28.1016 26.709 28.5625 25.6174 28.5625 24.4792C28.5625 23.3409 28.1016 22.2493 27.2811 21.4445C26.4606 20.6397 25.3478 20.1875 24.1875 20.1875C23.0272 20.1875 21.9144 20.6397 21.0939 21.4445C20.2734 22.2493 19.8125 23.3409 19.8125 24.4792C19.8125 25.6174 20.2734 26.709 21.0939 27.5138C21.9144 28.3187 23.0272 28.7708 24.1875 28.7708Z" fill="black"/>
</svg>
