<svg width="65" height="66" viewBox="0 0 65 66" fill="none" xmlns="http://www.w3.org/2000/svg">
<g clip-path="url(#clip0_996_2160)">
<path d="M35.3738 32.9152L44.1407 24.0281C44.4362 23.6783 44.5906 23.2283 44.5731 22.7681C44.5555 22.3079 44.3673 21.8713 44.0461 21.5456C43.7248 21.22 43.2941 21.0292 42.8402 21.0114C42.3862 20.9936 41.9423 21.1502 41.5972 21.4498L32.8303 30.2454L24.0093 21.3035C23.6642 21.0039 23.2203 20.8474 22.7663 20.8651C22.3123 20.8829 21.8816 21.0737 21.5604 21.3994C21.2391 21.725 21.0509 22.1616 21.0334 22.6218C21.0158 23.082 21.1702 23.532 21.4658 23.8818L30.2688 32.9152L21.6462 41.5462C21.4573 41.7101 21.304 41.9119 21.1957 42.1387C21.0874 42.3656 21.0266 42.6127 21.017 42.8645C21.0074 43.1164 21.0492 43.3675 21.1399 43.6021C21.2306 43.8368 21.3682 44.0499 21.544 44.2281C21.7198 44.4063 21.93 44.5458 22.1615 44.6377C22.393 44.7296 22.6407 44.7721 22.8891 44.7624C23.1376 44.7526 23.3813 44.6909 23.6051 44.5812C23.8289 44.4714 24.0279 44.316 24.1896 44.1245L32.7942 35.4021L41.3446 44.0697C41.6897 44.3693 42.1336 44.5258 42.5876 44.508C43.0416 44.4902 43.4723 44.2995 43.7935 43.9738C44.1148 43.6481 44.303 43.2116 44.3205 42.7513C44.3381 42.2911 44.1836 41.8412 43.8881 41.4913L35.3738 32.9152Z" fill="white"/>
<path d="M32.4697 62.1728C26.7612 62.1728 21.181 60.4569 16.4347 57.242C11.6883 54.0271 7.98895 49.4576 5.80444 44.1115C3.61993 38.7653 3.04836 32.8826 4.16201 27.2071C5.27567 21.5317 8.02453 16.3184 12.061 12.2266C16.0974 8.13487 21.2402 5.34834 26.8389 4.21942C32.4376 3.0905 38.2409 3.6699 43.5148 5.88436C48.7886 8.09881 53.2963 11.8489 56.4677 16.6603C59.6391 21.4717 61.3319 27.1284 61.3319 32.915C61.3319 40.6747 58.291 48.1165 52.8783 53.6034C47.4656 59.0903 40.1244 62.1728 32.4697 62.1728ZM32.4697 7.31446C27.4748 7.31446 22.5921 8.81591 18.439 11.6289C14.286 14.442 11.049 18.4402 9.13759 23.1181C7.22614 27.796 6.72602 32.9434 7.70047 37.9094C8.67492 42.8755 11.0802 47.437 14.6121 51.0173C18.144 54.5976 22.6439 57.0359 27.5428 58.0237C32.4416 59.0115 37.5195 58.5045 42.1341 56.5668C46.7488 54.6292 50.693 51.3479 53.468 47.1379C56.243 42.9279 57.7241 37.9783 57.7241 32.915C57.7241 26.1253 55.0634 19.6137 50.3272 14.8127C45.5911 10.0117 39.1676 7.31446 32.4697 7.31446Z" fill="white"/>
</g>
<defs>
<clipPath id="clip0_996_2160">
<rect width="64.94" height="65.83" fill="white"/>
</clipPath>
</defs>
</svg>
